<svg  viewBox="0 0 923 275" fill="none" xmlns="http://www.w3.org/2000/svg">
<path d="M270.559 198V124.545H288.313V154.028H317.257V124.545H334.976V198H317.257V168.482H288.313V198H270.559ZM371.864 199.04C366.102 199.04 361.128 197.904 356.944 195.633C352.783 193.337 349.579 190.074 347.331 185.841C345.108 181.585 343.996 176.528 343.996 170.67C343.996 164.979 345.12 160.005 347.367 155.749C349.615 151.469 352.783 148.146 356.872 145.778C360.961 143.387 365.779 142.192 371.326 142.192C375.248 142.192 378.834 142.801 382.086 144.021C385.338 145.24 388.148 147.046 390.515 149.437C392.882 151.828 394.723 154.781 396.038 158.296C397.353 161.787 398.011 165.792 398.011 170.311V174.687H350.129V164.501H381.692C381.668 162.636 381.225 160.974 380.365 159.515C379.504 158.057 378.32 156.921 376.814 156.108C375.331 155.271 373.622 154.853 371.685 154.853C369.724 154.853 367.967 155.295 366.412 156.18C364.858 157.04 363.627 158.224 362.718 159.73C361.81 161.213 361.331 162.899 361.284 164.788V175.153C361.284 177.401 361.726 179.373 362.611 181.071C363.495 182.745 364.751 184.048 366.377 184.98C368.003 185.913 369.939 186.379 372.187 186.379C373.741 186.379 375.152 186.164 376.419 185.734C377.686 185.303 378.774 184.67 379.683 183.833C380.592 182.996 381.273 181.968 381.727 180.748L397.832 181.214C397.162 184.825 395.691 187.969 393.42 190.647C391.172 193.301 388.219 195.37 384.561 196.852C380.903 198.311 376.67 199.04 371.864 199.04ZM406.968 198V142.909H424.005V152.952H424.579C425.583 149.317 427.221 146.615 429.493 144.846C431.764 143.053 434.406 142.156 437.419 142.156C438.232 142.156 439.069 142.216 439.93 142.335C440.791 142.431 441.592 142.586 442.333 142.801V158.045C441.496 157.758 440.396 157.531 439.033 157.363C437.694 157.196 436.499 157.112 435.446 157.112C433.366 157.112 431.489 157.578 429.815 158.511C428.166 159.42 426.862 160.699 425.906 162.349C424.973 163.975 424.507 165.888 424.507 168.087V198H406.968ZM449.479 198V142.909H466.157V153.023H466.767C467.915 149.676 469.851 147.034 472.577 145.097C475.303 143.16 478.555 142.192 482.333 142.192C486.159 142.192 489.434 143.172 492.16 145.133C494.886 147.094 496.62 149.724 497.361 153.023H497.935C498.963 149.748 500.972 147.129 503.96 145.169C506.949 143.184 510.476 142.192 514.541 142.192C519.754 142.192 523.986 143.866 527.238 147.213C530.49 150.537 532.116 155.104 532.116 160.914V198H514.577V164.931C514.577 162.181 513.872 160.089 512.461 158.654C511.05 157.196 509.221 156.467 506.973 156.467C504.558 156.467 502.657 157.256 501.27 158.834C499.907 160.388 499.226 162.48 499.226 165.11V198H482.369V164.752C482.369 162.193 481.675 160.173 480.289 158.69C478.902 157.208 477.073 156.467 474.801 156.467C473.271 156.467 471.92 156.837 470.748 157.578C469.576 158.296 468.656 159.324 467.986 160.663C467.341 162.002 467.018 163.58 467.018 165.397V198H449.479ZM558.513 198.933C554.998 198.933 551.878 198.347 549.152 197.175C546.45 195.98 544.31 194.186 542.732 191.795C541.178 189.38 540.401 186.355 540.401 182.721C540.401 179.66 540.939 177.078 542.015 174.974C543.091 172.87 544.573 171.16 546.462 169.845C548.351 168.53 550.527 167.537 552.99 166.868C555.453 166.174 558.083 165.708 560.881 165.469C564.013 165.182 566.535 164.883 568.448 164.572C570.361 164.238 571.748 163.771 572.609 163.174C573.494 162.552 573.936 161.679 573.936 160.555V160.376C573.936 158.535 573.302 157.112 572.035 156.108C570.768 155.104 569.058 154.602 566.906 154.602C564.587 154.602 562.722 155.104 561.311 156.108C559.9 157.112 559.003 158.499 558.621 160.268L542.445 159.695C542.923 156.347 544.155 153.358 546.139 150.728C548.148 148.074 550.898 145.994 554.389 144.487C557.904 142.957 562.124 142.192 567.05 142.192C570.564 142.192 573.804 142.61 576.769 143.447C579.734 144.26 582.317 145.456 584.517 147.034C586.716 148.588 588.414 150.501 589.61 152.772C590.829 155.044 591.439 157.638 591.439 160.555V198H574.94V190.325H574.51C573.529 192.19 572.274 193.768 570.744 195.059C569.237 196.35 567.456 197.319 565.4 197.964C563.367 198.61 561.072 198.933 558.513 198.933ZM563.929 187.455C565.818 187.455 567.516 187.073 569.022 186.308C570.552 185.542 571.772 184.49 572.681 183.151C573.589 181.788 574.044 180.21 574.044 178.417V173.18C573.541 173.443 572.932 173.683 572.214 173.898C571.521 174.113 570.756 174.316 569.919 174.507C569.082 174.699 568.221 174.866 567.336 175.01C566.452 175.153 565.603 175.285 564.79 175.404C563.14 175.667 561.729 176.074 560.558 176.624C559.41 177.174 558.525 177.891 557.904 178.776C557.306 179.636 557.007 180.665 557.007 181.86C557.007 183.677 557.653 185.064 558.944 186.021C560.259 186.977 561.921 187.455 563.929 187.455ZM650.26 159.73L634.156 160.161C633.988 159.013 633.534 157.997 632.793 157.112C632.052 156.204 631.083 155.498 629.888 154.996C628.716 154.47 627.353 154.207 625.799 154.207C623.766 154.207 622.033 154.614 620.598 155.426C619.187 156.239 618.494 157.339 618.518 158.726C618.494 159.802 618.924 160.735 619.809 161.524C620.718 162.313 622.332 162.946 624.651 163.425L635.268 165.433C640.767 166.485 644.856 168.231 647.534 170.67C650.236 173.109 651.599 176.337 651.623 180.354C651.599 184.132 650.475 187.419 648.251 190.217C646.051 193.015 643.039 195.19 639.213 196.745C635.387 198.275 631.011 199.04 626.086 199.04C618.219 199.04 612.014 197.426 607.471 194.198C602.952 190.946 600.369 186.594 599.724 181.143L617.047 180.712C617.43 182.721 618.422 184.251 620.024 185.303C621.626 186.355 623.671 186.881 626.157 186.881C628.405 186.881 630.234 186.463 631.645 185.626C633.056 184.789 633.773 183.677 633.797 182.29C633.773 181.047 633.223 180.055 632.147 179.314C631.071 178.548 629.385 177.951 627.09 177.52L617.478 175.691C611.954 174.687 607.842 172.834 605.14 170.132C602.438 167.406 601.099 163.939 601.123 159.73C601.099 156.048 602.079 152.904 604.064 150.298C606.048 147.667 608.87 145.659 612.528 144.272C616.187 142.885 620.503 142.192 625.476 142.192C632.936 142.192 638.818 143.758 643.122 146.89C647.426 149.999 649.805 154.279 650.26 159.73ZM679.554 138.964V124.545H741.639V138.964H719.366V198H701.863V138.964H679.554ZM768.072 199.04C762.31 199.04 757.336 197.904 753.152 195.633C748.991 193.337 745.787 190.074 743.54 185.841C741.316 181.585 740.204 176.528 740.204 170.67C740.204 164.979 741.328 160.005 743.575 155.749C745.823 151.469 748.991 148.146 753.08 145.778C757.169 143.387 761.987 142.192 767.534 142.192C771.456 142.192 775.042 142.801 778.294 144.021C781.546 145.24 784.356 147.046 786.723 149.437C789.09 151.828 790.931 154.781 792.246 158.296C793.561 161.787 794.219 165.792 794.219 170.311V174.687H746.337V164.501H777.9C777.876 162.636 777.433 160.974 776.573 159.515C775.712 158.057 774.528 156.921 773.022 156.108C771.539 155.271 769.83 154.853 767.893 154.853C765.932 154.853 764.175 155.295 762.62 156.18C761.066 157.04 759.835 158.224 758.926 159.73C758.018 161.213 757.539 162.899 757.492 164.788V175.153C757.492 177.401 757.934 179.373 758.819 181.071C759.703 182.745 760.959 184.048 762.585 184.98C764.211 185.913 766.147 186.379 768.395 186.379C769.949 186.379 771.36 186.164 772.627 185.734C773.895 185.303 774.982 184.67 775.891 183.833C776.8 182.996 777.481 181.968 777.935 180.748L794.04 181.214C793.37 184.825 791.899 187.969 789.628 190.647C787.38 193.301 784.427 195.37 780.769 196.852C777.111 198.311 772.878 199.04 768.072 199.04ZM828.893 199.04C823.082 199.04 818.097 197.845 813.936 195.453C809.8 193.062 806.62 189.739 804.396 185.483C802.172 181.203 801.06 176.253 801.06 170.634C801.06 164.991 802.172 160.041 804.396 155.785C806.644 151.505 809.836 148.17 813.972 145.778C818.133 143.387 823.094 142.192 828.857 142.192C833.95 142.192 838.385 143.112 842.163 144.953C845.965 146.795 848.93 149.401 851.058 152.772C853.21 156.12 854.346 160.053 854.466 164.572H838.075C837.74 161.751 836.783 159.539 835.205 157.937C833.651 156.335 831.619 155.534 829.108 155.534C827.076 155.534 825.294 156.108 823.764 157.256C822.234 158.379 821.038 160.053 820.177 162.277C819.34 164.477 818.922 167.203 818.922 170.455C818.922 173.706 819.34 176.456 820.177 178.704C821.038 180.928 822.234 182.613 823.764 183.761C825.294 184.885 827.076 185.447 829.108 185.447C830.734 185.447 832.169 185.1 833.412 184.407C834.679 183.713 835.719 182.697 836.532 181.358C837.345 179.995 837.859 178.345 838.075 176.408H854.466C854.298 180.951 853.162 184.921 851.058 188.316C848.978 191.711 846.049 194.354 842.271 196.243C838.517 198.108 834.058 199.04 828.893 199.04ZM880.98 166.581V198H863.441V124.545H880.406V153.023H881.016C882.259 149.628 884.292 146.974 887.113 145.061C889.958 143.148 893.437 142.192 897.55 142.192C901.424 142.192 904.795 143.053 907.665 144.774C910.534 146.472 912.758 148.875 914.336 151.983C915.938 155.092 916.727 158.726 916.703 162.887V198H899.164V166.33C899.188 163.269 898.423 160.878 896.869 159.157C895.314 157.435 893.127 156.574 890.305 156.574C888.464 156.574 886.838 156.981 885.427 157.794C884.04 158.583 882.953 159.719 882.163 161.201C881.398 162.683 881.004 164.477 880.98 166.581Z" fill="url(#paint0_linear_25_3)"/>
<mask id="mask0_25_3" style="mask-type:luminance" maskUnits="userSpaceOnUse" x="166" y="148"  >
<path d="M235.831 150.522C216.09 162.055 193.011 173.498 167.616 184.246V273.876H235.831V150.522Z" fill="white" stroke="white" stroke-width="2"/>
</mask>
<g mask="url(#mask0_25_3)">
<path d="M235.831 150.522C216.09 162.055 193.011 173.498 167.616 184.246V273.876H235.831V150.522Z" fill="url(#paint1_linear_25_3)" stroke="url(#paint2_linear_25_3)" stroke-width="2"/>
</g>
<mask id="mask1_25_3" style="mask-type:luminance" maskUnits="userSpaceOnUse" x="69" y="194"  >
<path d="M113.265 204.904L113.265 204.904C98.954 209.768 84.7377 214.166 70.7861 218.076V241.104V246.5V259.619V273.876H139.001V195.67C130.597 198.842 122.016 201.928 113.265 204.904Z" fill="white" stroke="white" stroke-width="2"/>
</mask>
<g mask="url(#mask1_25_3)">
<path d="M113.265 204.904L113.265 204.904C98.954 209.768 84.7377 214.166 70.7861 218.076V241.104V247.5V259.619V273.876H139.001V195.67C130.597 198.842 122.016 201.928 113.265 204.904Z" fill="url(#paint3_linear_25_3)" stroke="url(#paint4_linear_25_3)" stroke-width="2"/>
</g>
<mask id="mask2_25_3" style="mask-type:luminance" maskUnits="userSpaceOnUse" x="69" y="66" >
<path d="M127.651 100.923H125.609L126.862 99.3093L139.001 83.6746V80.0692C139.001 72.9348 133.216 67.1506 126.083 67.1506H83.7048C76.5704 67.1506 70.7861 72.9349 70.7861 80.0692V186.634C87.0328 182.304 103.861 177.214 120.83 171.445L120.83 171.445C127.039 169.335 133.09 167.192 139.001 165.026V100.923H127.651Z" fill="white" stroke="white" stroke-width="2"/>
</mask>
<g mask="url(#mask2_25_3)">
<path d="M127.651 100.923H125.609L126.862 99.3093L139.001 83.6746V80.0692C139.001 72.9348 133.216 67.1506 126.083 67.1506H83.7048C76.5704 67.1506 70.7861 72.9349 70.7861 80.0692V186.634C87.0328 182.304 103.861 177.214 120.83 171.445L120.83 171.445C127.039 169.335 133.09 167.192 139.001 165.026V100.923H127.651Z" fill="url(#paint5_linear_25_3)" stroke="url(#paint6_linear_25_3)" stroke-width="2"/>
</g>
<mask id="mask3_25_3" style="mask-type:luminance" maskUnits="userSpaceOnUse" x="166" y="0" >
<path d="M180.095 100.923H167.616V153.897C194.729 142.698 217.702 131.24 235.831 120.505V18.6346C235.831 9.27765 228.247 1.6933 218.888 1.6933H184.558C175.2 1.6933 167.616 9.27759 167.616 18.6346V82.22L180.885 99.3094L182.137 100.923H180.095Z" fill="white" stroke="white" stroke-width="2"/>
</mask>
<g mask="url(#mask3_25_3)">
<path d="M180.095 100.923H167.616V153.897C194.729 142.698 217.702 131.24 235.831 120.505V18.6346C235.831 9.27765 228.247 1.6933 218.888 1.6933H184.558C175.2 1.6933 167.616 9.27759 167.616 18.6346V82.22L180.885 99.3094L182.137 100.923H180.095Z" fill="url(#paint7_linear_25_3)" stroke="url(#paint8_linear_25_3)" stroke-width="2"/>
</g>
<path d="M33.2221 161.351C39.5025 153.226 48.5576 144.311 58.4282 135.481V118.209C39.3665 132.536 24.1455 147.011 14.1915 160.284C3.91942 173.981 -0.572254 186.166 1.72549 195.524L1.7255 195.524C3.48068 202.674 8.99699 207.877 17.7914 211.049C26.6052 214.227 38.6043 215.316 53.0248 214.249C81.8514 212.117 120.057 201.398 161.074 182.095C194.697 166.273 225.067 146.963 248.612 127.72C272.189 108.452 288.81 89.3398 295.089 73.9437L295.875 72.0161L296.888 73.8345L302.955 84.7207L302.918 46.4145L278.374 70.9962L290.409 70.9773L291.931 70.9749L291.329 72.3728C285.82 85.1647 271.036 99.8622 250.273 114.841C229.465 129.852 202.502 145.251 172.426 159.405C136.337 176.389 101.093 188.388 74.1157 193.212C60.6385 195.623 49.146 196.257 40.6185 194.78C32.1137 193.307 26.2417 189.658 24.6656 183.238C23.9092 180.158 24.5052 176.703 26.0277 173.055C27.5532 169.4 30.0468 165.459 33.2221 161.351Z" fill="url(#paint9_linear_25_3)" stroke="url(#paint10_linear_25_3)" stroke-width="2"/>
<defs>
<linearGradient id="paint0_linear_25_3" x1="265" y1="161" x2="923" y2="161" gradientUnits="userSpaceOnUse">
<stop stop-color="#67C764"/>
<stop offset="1" stop-color="#519E92"/>
</linearGradient>
<linearGradient id="paint1_linear_25_3" x1="117.652" y1="412.161" x2="277.322" y2="64.732" gradientUnits="userSpaceOnUse">
<stop stop-color="#3A73C2"/>
<stop offset="1" stop-color="#67C764"/>
</linearGradient>
<linearGradient id="paint2_linear_25_3" x1="201.724" y1="274.876" x2="201.724" y2="148.776" gradientUnits="userSpaceOnUse">
<stop stop-color="#FFA500"/>
<stop offset="1" stop-color="#FFFF00"/>
</linearGradient>
<linearGradient id="paint3_linear_25_3" x1="44.1075" y1="378.363" x2="203.777" y2="30.9333" gradientUnits="userSpaceOnUse">
<stop stop-color="#3A73C2"/>
<stop offset="1" stop-color="#67C764"/>
</linearGradient>
<linearGradient id="paint4_linear_25_3" x1="104.893" y1="274.876" x2="104.893" y2="194.223" gradientUnits="userSpaceOnUse">
<stop stop-color="#FFFF00"/>
<stop offset="1" stop-color="#FFA500"/>
</linearGradient>
<linearGradient id="paint5_linear_25_3" x1="-0.729865" y1="351.2" x2="153.763" y2="15.0319" gradientUnits="userSpaceOnUse">
<stop stop-color="#3A73C2"/>
<stop offset="1" stop-color="#67C764"/>
</linearGradient>
<linearGradient id="paint6_linear_25_3" x1="104.893" y1="187.935" x2="104.893" y2="66.1506" gradientUnits="userSpaceOnUse">
<stop stop-color="#FFFF00"/>
<stop offset="1" stop-color="#FFA500"/>
</linearGradient>
<linearGradient id="paint7_linear_25_3" x1="60.0816" y1="376.088" x2="214.254" y2="40.62" gradientUnits="userSpaceOnUse">
<stop stop-color="#3A73C2"/>
<stop offset="1" stop-color="#67C764"/>
</linearGradient>
<linearGradient id="paint8_linear_25_3" x1="201.724" y1="155.391" x2="201.724" y2="0.693298" gradientUnits="userSpaceOnUse">
<stop stop-color="#FFA500"/>
<stop offset="1" stop-color="#FFA500"/>
</linearGradient>
<linearGradient id="paint9_linear_25_3" x1="150.622" y1="253.497" x2="161.524" y2="50.7406" gradientUnits="userSpaceOnUse">
<stop stop-color="#4D969C"/>
<stop offset="1" stop-color="#68C865"/>
</linearGradient>
<linearGradient id="paint10_linear_25_3" x1="153.908" y1="211.699" x2="153.908" y2="41.0019" gradientUnits="userSpaceOnUse">
<stop stop-color="#FFFF00"/>
<stop offset="1" stop-color="#FFA500"/>
</linearGradient>
</defs>
</svg>
